  0
SECTION
  2
HEADER
  9
$ACADVER
  1
AC1009
  9
$FILLMODE
 70
0
  9
$EXTMIN
 10
-0.040000
 20
-0.040000
 30
0.000000
  9
$EXTMAX
 10
2.905000
 20
3.912500
 30
0.000000
  0
ENDSEC
  0
SECTION
  2
TABLES
  0
TABLE
  2
LTYPE
 70
1
  0
LTYPE
  2
CONTINUOUS
 70
64
  3
Solid line
 72
65
 73
0
 40
0
  0
ENDTAB
  0
TABLE
  2
LAYER
 70
255
  0
LAYER
  2
20
 70
64
 62
7
  6
CONTINUOUS
  0
ENDTAB
  0
ENDSEC
  0
SECTION
  2
BLOCKS
  0
BLOCK
  8
0
  2
RECT
 70
64
 10
0.000000
 20
0.000000
 30
0.000000
  3
RECT
  0
SOLID
  8
0
 10
-0.500000
 20
-0.500000
 30
0.000000
 11
0.500000
 21
-0.500000
 31
0.000000
 12
-0.500000
 22
0.500000
 32
0.000000
 13
0.500000
 23
0.500000
 33
0.000000
  0
ENDBLK
  8
0
  0
BLOCK
  8
0
  2
PIE
 70
64
 10
0.000000
 20
0.000000
 30
0.000000
  3
PIE
  0
CIRCLE
  8
0
 10
0.000000
 20
0.000000
 30
0.000000
 40
0.500000
  0
ENDBLK
  8
0
  0
BLOCK
  8
0
  2
OCTAGONP
 70
64
 10
0.000000
 20
0.000000
 30
0.000000
  3
OCTAGONP
  0
POLYLINE
  8
0
 66
1
 10
0.000000
 20
0.000000
 30
0.000000
 40
0.000000
 41
0.000000
 70
1
  0
VERTEX
  8
0
 10
-0.500000
 20
-0.207107
 30
0.000000
  0
VERTEX
  8
0
 10
-0.500000
 20
0.207107
 30
0.000000
  0
VERTEX
  8
0
 10
-0.207107
 20
0.500000
 30
0.000000
  0
VERTEX
  8
0
 10
0.207107
 20
0.500000
 30
0.000000
  0
VERTEX
  8
0
 10
0.500000
 20
0.207107
 30
0.000000
  0
VERTEX
  8
0
 10
0.500000
 20
-0.207107
 30
0.000000
  0
VERTEX
  8
0
 10
0.207107
 20
-0.500000
 30
0.000000
  0
VERTEX
  8
0
 10
-0.207107
 20
-0.500000
 30
0.000000
  0
SEQEND
  8
0
  0
ENDBLK
  8
0
  0
BLOCK
  8
0
  2
SQUAREP
 70
64
 10
0.000000
 20
0.000000
 30
0.000000
  3
SQUAREP
  0
SOLID
  8
0
 10
-0.500000
 20
-0.500000
 30
0.000000
 11
0.500000
 21
-0.500000
 31
0.000000
 12
-0.500000
 22
0.500000
 32
0.000000
 13
0.500000
 23
0.500000
 33
0.000000
  0
ENDBLK
  8
0
  0
BLOCK
  8
0
  2
ROUNDP
 70
64
 10
0.000000
 20
0.000000
 30
0.000000
  3
ROUNDP
  0
CIRCLE
  8
0
 10
0.000000
 20
0.000000
 30
0.000000
 40
0.500000
  0
ENDBLK
  8
0
  0
BLOCK
  8
0
  2
ANNULUSP
 70
64
 10
0.000000
 20
0.000000
 30
0.000000
  3
ANNULUSP
  0
CIRCLE
  8
0
 10
0.000000
 20
0.000000
 30
0.000000
 40
0.500000
  0
ENDBLK
  8
0
  0
BLOCK
  8
0
  2
THERMALP
 70
64
 10
0.000000
 20
0.000000
 30
0.000000
  3
THERMALP
  0
LINE
  8
0
 10
-0.237868
 20
0.450000
 30
0.000000
 11
0.237868
 21
0.450000
 31
0.000000
  0
LINE
  8
0
 10
0.450000
 20
0.237868
 30
0.000000
 11
0.450000
 21
-0.237868
 31
0.000000
  0
LINE
  8
0
 10
0.237868
 20
-0.450000
 30
0.000000
 11
-0.237868
 21
-0.450000
 31
0.000000
  0
LINE
  8
0
 10
-0.450000
 20
-0.237868
 30
0.000000
 11
-0.450000
 21
0.237868
 31
0.000000
  0
ENDBLK
  8
0
  0
BLOCK
  8
0
  2
OCTAGONV
 70
64
 10
0.000000
 20
0.000000
 30
0.000000
  3
OCTAGONV
  0
POLYLINE
  8
0
 66
1
 10
0.000000
 20
0.000000
 30
0.000000
 40
0.000000
 41
0.000000
 70
1
  0
VERTEX
  8
0
 10
-0.500000
 20
-0.207107
 30
0.000000
  0
VERTEX
  8
0
 10
-0.500000
 20
0.207107
 30
0.000000
  0
VERTEX
  8
0
 10
-0.207107
 20
0.500000
 30
0.000000
  0
VERTEX
  8
0
 10
0.207107
 20
0.500000
 30
0.000000
  0
VERTEX
  8
0
 10
0.500000
 20
0.207107
 30
0.000000
  0
VERTEX
  8
0
 10
0.500000
 20
-0.207107
 30
0.000000
  0
VERTEX
  8
0
 10
0.207107
 20
-0.500000
 30
0.000000
  0
VERTEX
  8
0
 10
-0.207107
 20
-0.500000
 30
0.000000
  0
SEQEND
  8
0
  0
ENDBLK
  8
0
  0
BLOCK
  8
0
  2
SQUAREV
 70
64
 10
0.000000
 20
0.000000
 30
0.000000
  3
SQUAREV
  0
SOLID
  8
0
 10
-0.500000
 20
-0.500000
 30
0.000000
 11
0.500000
 21
-0.500000
 31
0.000000
 12
-0.500000
 22
0.500000
 32
0.000000
 13
0.500000
 23
0.500000
 33
0.000000
  0
ENDBLK
  8
0
  0
BLOCK
  8
0
  2
ROUNDV
 70
64
 10
0.000000
 20
0.000000
 30
0.000000
  3
ROUNDV
  0
CIRCLE
  8
0
 10
0.000000
 20
0.000000
 30
0.000000
 40
0.500000
  0
ENDBLK
  8
0
  0
BLOCK
  8
0
  2
ANNULUSV
 70
64
 10
0.000000
 20
0.000000
 30
0.000000
  3
ANNULUSV
  0
CIRCLE
  8
0
 10
0.000000
 20
0.000000
 30
0.000000
 40
0.500000
  0
ENDBLK
  8
0
  0
BLOCK
  8
0
  2
THERMALV
 70
64
 10
0.000000
 20
0.000000
 30
0.000000
  3
THERMALV
  0
LINE
  8
0
 10
-0.237868
 20
0.450000
 30
0.000000
 11
0.237868
 21
0.450000
 31
0.000000
  0
LINE
  8
0
 10
0.450000
 20
0.237868
 30
0.000000
 11
0.450000
 21
-0.237868
 31
0.000000
  0
LINE
  8
0
 10
0.237868
 20
-0.450000
 30
0.000000
 11
-0.237868
 21
-0.450000
 31
0.000000
  0
LINE
  8
0
 10
-0.450000
 20
-0.237868
 30
0.000000
 11
-0.450000
 21
0.237868
 31
0.000000
  0
ENDBLK
  8
0
  0
ENDSEC
  0
SECTION
  2
ENTITIES
  0
ARC
  8
20
 10
0.100000
 20
0.100000
 30
0.000000
 40
0.100000
 50
180.000000
 51
270.000000
  0
LINE
  8
20
 10
0.000000
 20
0.100000
 30
0.000000
 11
0.000000
 21
3.800000
 31
0.000000
  0
ARC
  8
20
 10
0.100000
 20
3.800000
 30
0.000000
 40
0.100000
 50
90.000000
 51
180.000000
  0
LINE
  8
20
 10
0.100000
 20
3.900000
 30
0.000000
 11
0.300000
 21
3.900000
 31
0.000000
  0
LINE
  8
20
 10
2.600000
 20
3.700000
 30
0.000000
 11
2.600000
 21
3.800000
 31
0.000000
  0
ARC
  8
20
 10
2.500000
 20
3.800000
 30
0.000000
 40
0.100000
 50
0.000000
 51
90.000000
  0
LINE
  8
20
 10
2.500000
 20
3.900000
 30
0.000000
 11
0.400000
 21
3.900000
 31
0.000000
  0
LINE
  8
20
 10
2.900000
 20
3.500000
 30
0.000000
 11
2.900000
 21
0.400000
 31
0.000000
  0
ARC
  8
20
 10
2.800000
 20
0.400000
 30
0.000000
 40
0.100000
 50
270.000000
 51
0.000000
  0
LINE
  8
20
 10
2.800000
 20
0.300000
 30
0.000000
 11
2.700000
 21
0.300000
 31
0.000000
  0
ARC
  8
20
 10
2.800000
 20
3.500000
 30
0.000000
 40
0.100000
 50
0.000000
 51
90.000000
  0
LINE
  8
20
 10
2.800000
 20
3.600000
 30
0.000000
 11
2.700000
 21
3.600000
 31
0.000000
  0
LINE
  8
20
 10
2.600000
 20
0.200000
 30
0.000000
 11
2.600000
 21
0.100000
 31
0.000000
  0
ARC
  8
20
 10
2.500000
 20
0.100000
 30
0.000000
 40
0.100000
 50
270.000000
 51
0.000000
  0
LINE
  8
20
 10
2.500000
 20
0.000000
 30
0.000000
 11
0.400000
 21
0.000000
 31
0.000000
  0
LINE
  8
20
 10
0.300000
 20
0.000000
 30
0.000000
 11
0.100000
 21
0.000000
 31
0.000000
  0
LINE
  8
20
 10
0.950000
 20
3.570000
 30
0.000000
 11
0.950000
 21
0.380000
 31
0.000000
  0
LINE
  8
20
 10
0.950000
 20
0.380000
 30
0.000000
 11
2.150000
 21
0.380000
 31
0.000000
  0
LINE
  8
20
 10
2.150000
 20
0.380000
 30
0.000000
 11
2.150000
 21
3.570000
 31
0.000000
  0
LINE
  8
20
 10
2.150000
 20
3.570000
 30
0.000000
 11
0.950000
 21
3.570000
 31
0.000000
  0
LINE
  8
20
 10
0.400000
 20
3.900000
 30
0.000000
 11
0.400000
 21
0.000000
 31
0.000000
  0
LINE
  8
20
 10
0.300000
 20
0.000000
 30
0.000000
 11
0.300000
 21
3.900000
 31
0.000000
  0
ARC
  8
20
 10
2.700000
 20
3.700000
 30
0.000000
 40
0.100000
 50
180.000000
 51
270.000000
  0
ARC
  8
20
 10
2.700000
 20
0.200000
 30
0.000000
 40
0.100000
 50
90.000000
 51
180.000000
  0
CIRCLE
  8
20
 10
0.560000
 20
3.310500
 30
0.000000
 40
0.055000
  0
CIRCLE
  8
20
 10
0.560000
 20
3.743303
 30
0.000000
 40
0.055000
  0
CIRCLE
  8
20
 10
0.150000
 20
3.310500
 30
0.000000
 40
0.055000
  0
CIRCLE
  8
20
 10
0.150000
 20
3.743303
 30
0.000000
 40
0.055000
  0
CIRCLE
  8
20
 10
0.560000
 20
0.160500
 30
0.000000
 40
0.055000
  0
CIRCLE
  8
20
 10
0.560000
 20
0.593303
 30
0.000000
 40
0.055000
  0
CIRCLE
  8
20
 10
0.150000
 20
0.160500
 30
0.000000
 40
0.055000
  0
CIRCLE
  8
20
 10
0.150000
 20
0.593303
 30
0.000000
 40
0.055000
  0
ENDSEC
  0
EOF
